<mxfile host="app.diagrams.net" agent="Mozilla/5.0 (Windows NT 10.0; Win64; x64) AppleWebKit/537.36 (KHTML, like Gecko) Chrome/136.0.0.0 Safari/537.36" version="26.1.1">
  <diagram name="Page-1" id="_gcR_6NkZZyDUKReLNM3">
    <mxGraphModel dx="794" dy="412" grid="1" gridSize="10" guides="1" tooltips="1" connect="1" arrows="1" fold="1" page="1" pageScale="1" pageWidth="850" pageHeight="1100" math="0" shadow="0">
      <root>
        <mxCell id="0" />
        <mxCell id="1" parent="0" />
        <mxCell id="PZKYr1NVvcERqhae9jjM-5" value="Git&lt;div&gt;&lt;br&gt;&lt;/div&gt;" style="ellipse;whiteSpace=wrap;html=1;" vertex="1" parent="1">
          <mxGeometry x="70" y="110" width="120" height="80" as="geometry" />
        </mxCell>
        <mxCell id="PZKYr1NVvcERqhae9jjM-6" value="SDLC - Devlopment&amp;nbsp;" style="ellipse;whiteSpace=wrap;html=1;" vertex="1" parent="1">
          <mxGeometry x="50" y="270" width="140" height="70" as="geometry" />
        </mxCell>
        <mxCell id="PZKYr1NVvcERqhae9jjM-7" value="" style="endArrow=classic;html=1;rounded=0;entryX=0.317;entryY=0.967;entryDx=0;entryDy=0;entryPerimeter=0;" edge="1" parent="1" target="PZKYr1NVvcERqhae9jjM-5">
          <mxGeometry width="50" height="50" relative="1" as="geometry">
            <mxPoint x="85" y="280" as="sourcePoint" />
            <mxPoint x="100" y="220" as="targetPoint" />
          </mxGeometry>
        </mxCell>
        <mxCell id="PZKYr1NVvcERqhae9jjM-8" value="" style="endArrow=classic;html=1;rounded=0;" edge="1" parent="1" target="PZKYr1NVvcERqhae9jjM-9">
          <mxGeometry width="50" height="50" relative="1" as="geometry">
            <mxPoint x="190" y="160" as="sourcePoint" />
            <mxPoint x="260" y="150" as="targetPoint" />
            <Array as="points">
              <mxPoint x="210" y="140" />
              <mxPoint x="230" y="150" />
            </Array>
          </mxGeometry>
        </mxCell>
        <mxCell id="PZKYr1NVvcERqhae9jjM-9" value="Jenkins&amp;nbsp;" style="ellipse;whiteSpace=wrap;html=1;" vertex="1" parent="1">
          <mxGeometry x="260" y="110" width="120" height="80" as="geometry" />
        </mxCell>
        <mxCell id="PZKYr1NVvcERqhae9jjM-10" value="" style="endArrow=classic;html=1;rounded=0;" edge="1" parent="1" target="PZKYr1NVvcERqhae9jjM-12">
          <mxGeometry width="50" height="50" relative="1" as="geometry">
            <mxPoint x="319.5" y="190" as="sourcePoint" />
            <mxPoint x="320" y="390" as="targetPoint" />
          </mxGeometry>
        </mxCell>
        <mxCell id="PZKYr1NVvcERqhae9jjM-11" value="Automate&amp;nbsp;&lt;div&gt;Build&amp;nbsp;&lt;/div&gt;&lt;div&gt;Test&lt;/div&gt;&lt;div&gt;Deploy&lt;/div&gt;&lt;div&gt;Envorore&lt;/div&gt;" style="edgeLabel;html=1;align=center;verticalAlign=middle;resizable=0;points=[];" vertex="1" connectable="0" parent="PZKYr1NVvcERqhae9jjM-10">
          <mxGeometry x="-0.6" y="2" relative="1" as="geometry">
            <mxPoint x="44" y="19" as="offset" />
          </mxGeometry>
        </mxCell>
        <mxCell id="PZKYr1NVvcERqhae9jjM-12" value="Jar/war" style="ellipse;whiteSpace=wrap;html=1;" vertex="1" parent="1">
          <mxGeometry x="480" y="170" width="90" height="70" as="geometry" />
        </mxCell>
        <mxCell id="PZKYr1NVvcERqhae9jjM-13" value="" style="endArrow=classic;html=1;rounded=0;" edge="1" parent="1" target="PZKYr1NVvcERqhae9jjM-14">
          <mxGeometry width="50" height="50" relative="1" as="geometry">
            <mxPoint x="380" y="160" as="sourcePoint" />
            <mxPoint x="550" y="110" as="targetPoint" />
          </mxGeometry>
        </mxCell>
        <mxCell id="PZKYr1NVvcERqhae9jjM-14" value="Arificatore" style="ellipse;whiteSpace=wrap;html=1;" vertex="1" parent="1">
          <mxGeometry x="490" y="70" width="120" height="80" as="geometry" />
        </mxCell>
        <mxCell id="PZKYr1NVvcERqhae9jjM-15" value="Tomcat Weber" style="ellipse;whiteSpace=wrap;html=1;" vertex="1" parent="1">
          <mxGeometry x="610" y="220" width="120" height="80" as="geometry" />
        </mxCell>
        <mxCell id="PZKYr1NVvcERqhae9jjM-16" value="" style="endArrow=classic;html=1;rounded=0;exitX=0.4;exitY=1;exitDx=0;exitDy=0;exitPerimeter=0;" edge="1" parent="1" source="PZKYr1NVvcERqhae9jjM-9">
          <mxGeometry width="50" height="50" relative="1" as="geometry">
            <mxPoint x="620" y="350" as="sourcePoint" />
            <mxPoint x="670" y="300" as="targetPoint" />
            <Array as="points">
              <mxPoint x="690" y="370" />
            </Array>
          </mxGeometry>
        </mxCell>
      </root>
    </mxGraphModel>
  </diagram>
</mxfile>
